<svg xmlns="http://www.w3.org/2000/svg">
  <symbol id="header-logo__text" viewBox="0 0 101 18">
    <g clip-path="url(#a)" fill="#111">
      <path
        d="M1.26 16.54A6.86 6.86 0 0 1 0 12.24v-6.4C-.1 4.3.3 2.77 1.19 1.47 2.05.46 3.39 0 5.37 0 7.35 0 8.61.46 9.4 1.3a5.42 5.42 0 0 1 1.19 3.78v1.54H6.72V4.85a3.7 3.7 0 0 0-.24-1.54 1.16 1.16 0 0 0-1.1-.62c-.56 0-.95.16-1.11.54a4.85 4.85 0 0 0-.24 1.7v8.22c-.04.56.07 1.12.32 1.62.15.38.55.54 1.1.54.56 0 .87-.16 1.03-.54.18-.52.26-1.07.24-1.62v-1.84h3.87v1.54a5.77 5.77 0 0 1-1.19 3.84c-.79.93-2.13 1.39-4.03 1.39-1.9-.08-3.32-.54-4.1-1.54ZM15.25.23h4.5l3.33 17.54h-3.64l-.63-3.7h-2.6l-.64 3.7h-3.72L15.25.23Zm3.24 11.54-.95-6.85-.94 6.85h1.9ZM25.84 3.15h-2.68V.23h9.4v2.85h-2.69v14.69h-4.03V3.15ZM39.75.23h6.96v1.85h-4.5v5.77h3.63v1.77H42.2v6.46h4.5v1.77h-7.03V.23h.08ZM48.76.23h1.74l5.14 11.62V.23h2.05v17.54h-1.58l-5.21-12v12h-2.14V.23ZM60.06.23h6.96v1.85h-4.5v5.77h3.63v1.77H62.5v6.46h4.5v1.77h-6.95V.23ZM69.07.23h3.64c1.43-.1 2.85.28 4.03 1.08C77.6 2 78 3.23 78 4.85c0 2.23-.7 3.61-2.21 4.07l2.53 8.77h-2.45L73.5 9.46h-1.98v8.23H69V.23h.08Zm3.48 7.54c.81.06 1.63-.15 2.3-.62.47-.38.7-1.15.7-2.3a4.85 4.85 0 0 0-.23-1.7c-.18-.39-.49-.71-.87-.92a3.69 3.69 0 0 0-1.74-.3h-1.1v5.76h.94v.08ZM81.16 16.46a7.61 7.61 0 0 1-1.1-4.46V6.15c-.02-1.11.11-2.22.4-3.3.26-.81.78-1.51 1.5-2 .88-.51 1.9-.75 2.92-.7 1.66 0 2.84.39 3.55 1.23a5.77 5.77 0 0 1 1.11 3.85v.62h-2.37V5.3c0-.65-.05-1.29-.16-1.93-.06-.4-.3-.76-.63-1a2.5 2.5 0 0 0-1.5-.38 2.42 2.42 0 0 0-1.58.46 1.75 1.75 0 0 0-.63 1.23c-.1.69-.16 1.38-.16 2.08v6.54c-.06 1 .1 2 .47 2.92.32.62.95.85 1.9.85a1.96 1.96 0 0 0 1.9-.93c.41-.97.6-2.02.55-3.07v-1.23h-2.3V9.08h4.59v8.69h-1.58l-.24-2c-.2.67-.64 1.25-1.22 1.66-.6.4-1.3.6-2.02.57a4.05 4.05 0 0 1-3.4-1.54ZM94.68 11.62 90.8.3h2.37l2.76 8.46L98.63.3H101l-3.87 11.3v6.16h-2.37v-6.15h-.08Z"/>
    </g>
    <defs>
      <clipPath id="a">
        <path fill="#fff" d="M0 0h101v18H0z"/>
      </clipPath>
    </defs>
  </symbol>
  <symbol id="footer-logo__text" viewBox="0 0 128 24">
    <g clip-path="url(#z)" fill="#111">
      <path d="M1.603 22.051A9.498 9.498 0 0 1 0 16.308V7.795a9.63 9.63 0 0 1 1.502-5.846C2.604.615 4.307 0 6.811 0s4.106.615 5.108 1.744a7.487 7.487 0 0 1 1.502 5.025v2.052H8.513V6.46a5.157 5.157 0 0 0-.3-2.05 1.463 1.463 0 0 0-.579-.63 1.415 1.415 0 0 0-.823-.191c-.701 0-1.202.205-1.403.718a6.774 6.774 0 0 0-.3 2.256v10.974a4.334 4.334 0 0 0 .4 2.154c.2.513.702.718 1.403.718.7 0 1.102-.205 1.302-.718.228-.693.33-1.423.3-2.154v-2.461h4.908v2.051a7.98 7.98 0 0 1-1.502 5.128c-1.002 1.231-2.705 1.847-5.108 1.847-2.404-.103-4.207-.718-5.208-2.052ZM19.33.308h5.71l4.206 23.384h-4.607l-.802-4.923h-3.305l-.801 4.923h-4.708L19.33.308Zm4.107 15.384-1.202-9.128-1.202 9.128h2.404ZM32.751 4.205h-3.405V.308h11.918v3.794H37.86v19.59h-5.108V4.205ZM50.379.308h8.814v2.461h-5.71v7.692h4.608v2.36h-4.607v8.615h5.709v2.359h-8.914V.308h.1ZM61.797.308H64l6.51 15.487V.308h2.604v23.384h-2.003l-6.61-16v16h-2.704V.308ZM76.119.308h8.814v2.461h-5.71v7.692h4.608v2.36h-4.607v8.615h5.709v2.359h-8.814V.308ZM87.537.308h4.607a7.873 7.873 0 0 1 5.108 1.436c1.102.923 1.602 2.564 1.602 4.717 0 2.975-.901 4.821-2.804 5.436l3.205 11.693H96.15l-3.005-10.975h-2.503V23.59h-3.205V.308h.1Zm4.407 10.05a4.302 4.302 0 0 0 2.904-.82c.601-.512.902-1.538.902-3.077a6.772 6.772 0 0 0-.3-2.256 2.583 2.583 0 0 0-1.103-1.23 4.473 4.473 0 0 0-2.203-.411h-1.402v7.692h1.202v.103ZM102.861 21.949a10.566 10.566 0 0 1-1.402-5.95V8.206c-.025-1.486.143-2.97.5-4.41a5.204 5.204 0 0 1 1.903-2.667 6.421 6.421 0 0 1 3.706-.923c2.103 0 3.606.513 4.507 1.641a7.982 7.982 0 0 1 1.402 5.128v.82h-3.004v-.717a15.503 15.503 0 0 0-.201-2.564 2.056 2.056 0 0 0-.801-1.334 3.04 3.04 0 0 0-1.903-.512 2.955 2.955 0 0 0-2.003.615 2.349 2.349 0 0 0-.801 1.641 19.734 19.734 0 0 0-.201 2.77v8.717a9.527 9.527 0 0 0 .601 3.898c.401.82 1.202 1.128 2.404 1.128.475.06.956-.024 1.384-.243a2.45 2.45 0 0 0 1.02-.988 9.635 9.635 0 0 0 .701-4.102V14.46h-2.905v-2.359h5.809v11.59h-2.003l-.3-2.666a4.18 4.18 0 0 1-1.554 2.21 4.016 4.016 0 0 1-2.553.764 4.907 4.907 0 0 1-2.406-.47 5.037 5.037 0 0 1-1.9-1.581ZM119.987 15.487 115.08.41h3.004l3.506 11.282L124.995.41H128l-4.908 15.077v8.205h-3.004v-8.205h-.101Z"/>
    </g>
    <defs>
      <clipPath id="z">
        <path fill="#fff" d="M0 0h128v24H0z"/>
      </clipPath>
    </defs>
  </symbol>
  <symbol id="social-icon__vk" viewBox="0 0 23 16">
    <path
      d="M.07 4c0-.63.42-.96 1.27-1.01L4.6 3c.22 0 .37.09.44.27.33.91.7 1.7 1.13 2.37.41.66.95 1.43 1.63 2.3a.3.3 0 0 0 .28.16c.1 0 .18-.04.24-.13l.07-.2.02-3.17c0-.21-.06-.36-.19-.43A1.9 1.9 0 0 0 7.53 4c-.26-.04-.4-.17-.4-.4 0-.05.02-.09.03-.11.3-.8 1.18-1.19 2.63-1.19L11 2.29c.56 0 1.02.12 1.38.35.37.23.55.6.55 1.1v4.15c.1.06.2.09.28.09.22 0 .41-.11.57-.33 1.6-1.88 2.48-3.13 2.6-3.77a1.29 1.29 0 0 1 .55-.57c.24-.13.44-.22.62-.27a.5.5 0 0 1 .2-.03h3.39l.21.01c.3 0 .52.12.68.35.06.07.1.15.12.24a1.57 1.57 0 0 1 .06.4v.13c-.1.5-.36 1.03-.78 1.6-.41.57-.94 1.18-1.59 1.84-.64.66-1.04 1.09-1.2 1.3-.13.14-.2.28-.2.4 0 .1.06.2.18.33l3.2 3.36c.17.2.26.41.26.64 0 .28-.13.52-.4.7-.26.18-.57.28-.94.3l-.37.03h-3.33a.8.8 0 0 0-.08 0 .8.8 0 0 1-.1.02c-.31 0-.61-.12-.89-.35a182 182 0 0 1-2.06-2.16 1.1 1.1 0 0 0-.3-.24 25.63 25.63 0 0 0-.44 1.63l-.07.31c-.14.43-.45.68-.92.77l-.3.02H9.74a5.92 5.92 0 0 1-3.62-1.4 14.5 14.5 0 0 1-3.25-3.59A32.9 32.9 0 0 1 .18 4.52C.11 4.36.07 4.2.07 4Zm13.15 4.73c-.3 0-.58-.07-.83-.21-.25-.14-.37-.33-.37-.58v-4.2c0-.25-.07-.42-.22-.52-.15-.1-.4-.16-.77-.16L9.8 3.1c-.63 0-1.1.09-1.43.27.65.26.97.67.97 1.24v3.22c-.03.3-.18.56-.44.76-.26.2-.55.3-.88.3-.43 0-.77-.17-1-.53a18.47 18.47 0 0 1-2.54-4.1l-.2-.47-2.9-.02c-.2 0-.3.01-.33.03-.02.02-.03.07-.03.16 0 .1.02.22.04.34l.46 1.03a23.46 23.46 0 0 0 4 6.25c1.44 1.53 2.85 2.29 4.23 2.29h2.2c.08 0 .15-.02.19-.07a.52.52 0 0 0 .1-.24l.05-.18.42-1.61c.11-.22.22-.37.3-.44.16-.14.35-.2.57-.2.35 0 .71.17 1.08.53l1.86 1.97c.11.16.24.24.37.24h3.6c.45 0 .67-.1.67-.28a.31.31 0 0 0-.07-.18l-3.17-3.3a1.17 1.17 0 0 1-.38-.83c0-.3.12-.57.35-.84.2-.25.56-.65 1.11-1.22a28.2 28.2 0 0 0 1.43-1.59c.41-.5.68-.94.81-1.34l.07-.24a.24.24 0 0 1-.02-.12l-.02-.14h-3.44c-.22.07-.4.18-.53.33l-.13.35c-.36.84-1.32 2.14-2.86 3.9-.31.24-.67.36-1.08.36Z"
    />
  </symbol>
  <symbol id="social-icon__instagram" viewBox="0 0 16 16">
    <g clip-path="url(#x)">
      <path
        d="M7.98.06c1.34 0 2.43.02 3.27.05a6 6 0 0 1 1.92.37 3.99 3.99 0 0 1 2.31 2.32 6 6 0 0 1 .38 1.92 91.88 91.88 0 0 1 0 6.53 6 6 0 0 1-.38 1.92 3.99 3.99 0 0 1-2.3 2.31 6 6 0 0 1-1.93.38 91.88 91.88 0 0 1-6.53 0 6 6 0 0 1-1.92-.38 3.99 3.99 0 0 1-2.32-2.3 6 6 0 0 1-.37-1.93 91.73 91.73 0 0 1 0-6.53A6 6 0 0 1 .48 2.8 3.99 3.99 0 0 1 2.8.48 6 6 0 0 1 4.72.11C5.56.08 6.65.06 7.98.06Zm0 1.03c-1.38 0-2.51.02-3.39.05-.56.02-1.08.12-1.56.3-.75.31-1.28.84-1.6 1.6-.17.47-.27 1-.29 1.55a98.83 98.83 0 0 0 0 6.79c.02.56.12 1.08.3 1.56.31.75.84 1.28 1.6 1.6.47.17 1 .27 1.55.29a98.66 98.66 0 0 0 6.79 0 5.01 5.01 0 0 0 1.56-.3 2.85 2.85 0 0 0 1.6-1.6c.17-.47.27-1 .29-1.55a98.66 98.66 0 0 0 0-6.79 5.01 5.01 0 0 0-.3-1.56 2.85 2.85 0 0 0-1.6-1.6c-.47-.17-1-.27-1.55-.29-.88-.03-2.01-.05-3.4-.05Zm0 10.07c.88 0 1.63-.31 2.25-.93.62-.62.93-1.37.93-2.25 0-.87-.31-1.62-.93-2.24a3.06 3.06 0 0 0-2.25-.93c-.87 0-1.62.31-2.24.93a3.06 3.06 0 0 0-.93 2.24c0 .88.31 1.63.93 2.25.62.62 1.37.93 2.24.93Zm0-7.24c1.13 0 2.09.4 2.88 1.19a3.9 3.9 0 0 1 1.19 2.87 3.9 3.9 0 0 1-1.2 2.88 3.85 3.85 0 0 1-2.87 1.19c-1.12 0-2.08-.4-2.87-1.2a3.92 3.92 0 0 1-1.19-2.87c0-1.12.4-2.08 1.19-2.87a3.9 3.9 0 0 1 2.87-1.19Zm5.2-.15a.95.95 0 0 1-.97.94.9.9 0 0 1-.67-.28.9.9 0 0 1-.27-.66.95.95 0 0 1 .93-.97c.26 0 .49.1.68.29.2.19.3.42.3.68Z"
      />
    </g>
    <defs>
      <clipPath id="x">
        <path d="M0 0h16v16H0z"/>
      </clipPath>
    </defs>
  </symbol>
  <symbol id="social-icon__fb" viewBox="0 0 13 20">
    <path d="M11.5.833H8.75A4.63 4.63 0 0 0 5.51 2.15a4.45 4.45 0 0 0-1.343 3.177v2.697h-2.75v3.595h2.75v7.191h3.666v-7.19h2.75l.917-3.596H7.833V5.327a.89.89 0 0 1 .269-.635.926.926 0 0 1 .648-.263h2.75V.833Z" stroke-width="1.1" stroke-linecap="round" stroke-linejoin="round"/>
  </symbol>
  <symbol id="copyright__author" viewBox="0 0 27 34">
    <path
      d="M13.64.02 13.5 0 0 1.4v24.61L13.5 34 27 26.01V1.41L13.64 0Zm11.6 25L13.5 31.96 1.77 25.02v-10.1l11.68 6.93.02 1.25-8.02-4.75v1.23l8.04 4.8.02 1.3-8.05-4.76v1.22l8.04 4.81 8.12-4.83V16.9l3.62-2.15v10.26Zm0-11.57L22 15.33l-1.48.88-7.06-4.19-.01 1.23 6.04 3.57-.06.03-.13.07-.86.5-4.98-2.95-.01 1.22 3.93 2.33-.93.61-.02.01-2.97-1.74-.01 1.23 1.94 1.13-1.98 1.19L1.8 13.58l11.63-6.96 11.8 6.83Zm0-1.22L13.43 5.3 1.77 12.22V2.99L13.5 1.76 25.23 3v9.24Z"
    />
  </symbol>
  <symbol id="letter-icon" viewBox="0 0 19 14">
    <path stroke-width="1.3"
          d="M.65 5.85v8M17.65 5.85v8M0 13.2h18M0 1.2h18M17.35 3.03 9 9.53.65 3.02V1.5h16.7v1.53Z"/>
  </symbol>
  <symbol id="phone-icon" viewBox="0 0 21 21">
    <path
      d="M17.9 9.75H9.4v1.2h8.5l-2.1 2.11.9.9 3.1-3.1a.75.75 0 0 0 0-.9l-3.1-3.12-.9.9 2.1 2.01ZM8.1 19.79v-6.22a.65.65 0 0 0-.6-.6H3.1a1.23 1.23 0 0 0 1.2 1.2h2.5v5.02H3.1a1.78 1.78 0 0 1-1.9-1.71V3.43a1.78 1.78 0 0 1 1.7-1.8h3.9v5.01H4.4a1.22 1.22 0 0 0-1.2 1.2h4.4a.65.65 0 0 0 .6-.6V.92a.86.86 0 0 0-.7-.6H3.1A3 3 0 0 0 0 3.23v13.95a2.9 2.9 0 0 0 2.9 3.1h4.6a.5.5 0 0 0 .6-.5Z"/>
  </symbol>
</svg>
